<?xml version="1.0" encoding="UTF-8" standalone="no"?>
<!-- Created with Inkscape (http://www.inkscape.org/) -->

<svg
   xmlns:osb="http://www.openswatchbook.org/uri/2009/osb"
   xmlns:dc="http://purl.org/dc/elements/1.1/"
   xmlns:cc="http://creativecommons.org/ns#"
   xmlns:rdf="http://www.w3.org/1999/02/22-rdf-syntax-ns#"
   xmlns:svg="http://www.w3.org/2000/svg"
   xmlns="http://www.w3.org/2000/svg"
   xmlns:xlink="http://www.w3.org/1999/xlink"
   xmlns:sodipodi="http://sodipodi.sourceforge.net/DTD/sodipodi-0.dtd"
   xmlns:inkscape="http://www.inkscape.org/namespaces/inkscape"
   width="800px"
   height="600px"
   id="svg2993"
   version="1.1"
   inkscape:version="0.48.5 r10040"
   sodipodi:docname="boardFinal.svg">
  <defs
     id="defs2995">
    <linearGradient
       id="linearGradient5235">
      <stop
         style="stop-color:#063c04;stop-opacity:1;"
         offset="0"
         id="stop5237" />
      <stop
         id="stop5255"
         offset="0.5"
         style="stop-color:#148717;stop-opacity:0.75;" />
      <stop
         style="stop-color:#00fc14;stop-opacity:0.5625;"
         offset="1"
         id="stop5239" />
    </linearGradient>
    <linearGradient
       id="linearGradient5227">
      <stop
         style="stop-color:#f60909;stop-opacity:1;"
         offset="0"
         id="stop5229" />
      <stop
         style="stop-color:#880303;stop-opacity:0.5714286;"
         offset="1"
         id="stop5231" />
    </linearGradient>
    <pattern
       inkscape:collect="always"
       xlink:href="#Checkerboard"
       id="pattern5214"
       patternTransform="scale(100.58307,100.58307)" />
    <pattern
       inkscape:stockid="Checkerboard"
       id="Checkerboard"
       patternTransform="translate(0,0) scale(10,10)"
       height="2"
       width="2"
       patternUnits="userSpaceOnUse"
       inkscape:collect="always">
      <rect
         id="rect4571"
         height="1"
         width="1"
         y="0"
         x="0"
         style="fill:black;stroke:none" />
      <rect
         id="rect4573"
         height="1"
         width="1"
         y="1"
         x="1"
         style="fill:black;stroke:none" />
    </pattern>
    <linearGradient
       id="linearGradient3771"
       osb:paint="solid">
      <stop
         style="stop-color:#ff005d;stop-opacity:1;"
         offset="0"
         id="stop3773" />
    </linearGradient>
    <radialGradient
       inkscape:collect="always"
       xlink:href="#linearGradient5227"
       id="radialGradient5233"
       cx="299.16669"
       cy="301.66666"
       fx="299.16669"
       fy="301.66666"
       r="300.16669"
       gradientTransform="matrix(1.0176122,-0.01102197,0.01133051,1.0062449,-2.2026475,-1.7666338)"
       gradientUnits="userSpaceOnUse" />
    <radialGradient
       inkscape:collect="always"
       xlink:href="#linearGradient5235"
       id="radialGradient5243"
       cx="299.16669"
       cy="301.66666"
       fx="299.16669"
       fy="301.66666"
       r="300.16669"
       gradientTransform="matrix(1.0119931,0,0,1.0063063,2.8964238,-5.0825501)"
       gradientUnits="userSpaceOnUse" />
  </defs>
  <sodipodi:namedview
     id="base"
     pagecolor="#ffffff"
     bordercolor="#666666"
     borderopacity="1.0"
     inkscape:pageopacity="0.0"
     inkscape:pageshadow="2"
     inkscape:zoom="3.3941125"
     inkscape:cx="-18.979379"
     inkscape:cy="306.85908"
     inkscape:current-layer="layer4"
     inkscape:document-units="px"
     showgrid="false"
     inkscape:window-width="1366"
     inkscape:window-height="705"
     inkscape:window-x="-8"
     inkscape:window-y="-8"
     inkscape:window-maximized="1">
    <inkscape:grid
       type="xygrid"
       id="grid5859" />
  </sodipodi:namedview>
  <metadata
     id="metadata2998">
    <rdf:RDF>
      <cc:Work
         rdf:about="">
        <dc:format>image/svg+xml</dc:format>
        <dc:type
           rdf:resource="http://purl.org/dc/dcmitype/StillImage" />
        <dc:title />
      </cc:Work>
    </rdf:RDF>
  </metadata>
  <g
     inkscape:groupmode="layer"
     id="layer2"
     inkscape:label="Color"
     style="opacity:0.53365383;display:inline"
     sodipodi:insensitive="true">
    <rect
       style="fill:url(#radialGradient5243);fill-opacity:1;stroke:url(#radialGradient5233);stroke-width:2.00442743;stroke-linecap:square;stroke-linejoin:bevel;stroke-miterlimit:4;stroke-opacity:1;stroke-dasharray:none;stroke-dashoffset:0"
       id="rect5217"
       width="607.57257"
       height="601.24921"
       x="1.7174021"
       y="-1.1056159"
       transform="matrix(1,3.8135368e-5,-3.8755479e-5,1,0,0)"
       ry="0" />
  </g>
  <g
     inkscape:groupmode="layer"
     id="layer4"
     inkscape:label="Circles"
     style="display:inline"
     sodipodi:insensitive="true">
    <path
       style="fill:#ffffff;fill-opacity:0;stroke:#636363;stroke-width:2.07288456;stroke-linecap:square;stroke-linejoin:bevel;stroke-miterlimit:4;stroke-opacity:1;stroke-dasharray:none;stroke-dashoffset:0"
       d="M 304.66372,-0.05739913 C 176.88792,-0.35921694 46.857739,96.669324 11.385909,222.70173 -18.522167,329.87574 20.023277,451.93762 101.78806,523.6671 205.14241,614.5402 367.44097,620.42546 478.93703,541.87953 548.73968,493.56944 599.69309,414.14893 606.70626,327.07804 615.2491,229.54472 574.07371,127.90883 497.57271,69.145287 439.91703,25.151831 376.44537,-1.232588 304.66372,-0.05739913 z"
       id="path5258"
       inkscape:connector-curvature="0"
       sodipodi:nodetypes="ccccccc" />
    <path
       style="fill:#ffffff;fill-opacity:0;stroke:#636363;stroke-width:2.08754158;stroke-linecap:square;stroke-linejoin:bevel;stroke-miterlimit:4;stroke-opacity:1;stroke-dasharray:none;stroke-dashoffset:0"
       d="m 299.12989,97.545306 c -92.74056,1.365691 -178.93206,76.420404 -193.13646,168.911774 -12.66508,80.27811 25.6776,167.46885 95.42279,208.24375 81.28614,47.17684 194.23006,29.11168 256.59498,-41.56559 C 511.92542,372.74879 524.82662,277.73962 486.99436,205.6015 454.412,141.88752 385.79986,99.372985 314.60757,97.955793 309.45782,97.606225 304.29073,97.470844 299.12989,97.545306 z"
       id="path5258-5"
       inkscape:connector-curvature="0" />
    <path
       style="fill:#ffffff;fill-opacity:0;stroke:#636363;stroke-width:2.12857699;stroke-linecap:square;stroke-linejoin:bevel;stroke-miterlimit:4;stroke-opacity:1;stroke-dasharray:none;stroke-dashoffset:0"
       d="m 305.48841,199.63891 c -55.43451,0.003 -104.87561,55.21046 -97.55951,111.59885 5.04207,45.36811 44.08367,86.56534 89.97113,88.11203 44.76471,2.91829 91.44963,-24.97356 106.30193,-68.86468 14.77256,-43.97941 -5.08677,-98.88897 -47.58471,-118.76164 -15.89882,-8.04066 -33.3003,-12.56555 -51.12884,-12.08456 z"
       id="path5258-2"
       inkscape:connector-curvature="0" />
  </g>
  <g
     inkscape:groupmode="layer"
     id="layer3"
     inkscape:label="Grid"
     style="display:inline"
     sodipodi:insensitive="true">
    <path
       id="path5250"
       style="fill:none;stroke:#000000;stroke-width:2.20932364;stroke-linecap:round;stroke-linejoin:miter;stroke-miterlimit:4;stroke-opacity:1;stroke-dasharray:none"
       d="m 607.63333,97.391309 -605.584054,4.74e-4 7.95e-5,101.349427 606.0254145,-4.7e-4 -0.0366,101.05398 -606.2848993,4.6e-4 7.91e-5,101.05399 606.1357602,-4.8e-4 -0.0367,101.34944 -605.8027365,4.9e-4 -0.2961979,97.21273 606.4728644,-4.8e-4 M 102.78149,0.71873655 c 0,0 -0.88835,595.73774345 -0.59186,598.39706345 l 103.40052,0.59088 0.29578,-599.23231577 99.84435,-7.75e-5 -0.41852,598.91583327 103.4715,-0.41795 -0.21427,-598.55439561 99.72448,0.20742305 -0.2076,598.78575256 100.10181,-0.59103 0.0283,-599.01301126 M 0.96576959,0.72455287 608.19296,-0.1850246 608.22622,599.1154 2.2231927,599.11587 z"
       inkscape:connector-curvature="0"
       sodipodi:nodetypes="ccccccccccccccccccccccccccccc" />
  </g>
</svg>
